<svg width="156" height="16" viewBox="0 0 156 16" fill="none" xmlns="http://www.w3.org/2000/svg">
<path d="M0.768 1.552V1.12H5.312C6.368 1.12 7.17333 1.38667 7.728 1.92C8.28267 2.44267 8.56 3.14133 8.56 4.016V4.48C8.56 5.35467 8.28267 6.05867 7.728 6.592C7.17333 7.12533 6.368 7.392 5.312 7.392H3.392V10.704C3.392 11.0773 3.408 11.3013 3.44 11.376C3.472 11.44 3.57333 11.4773 3.744 11.488L4.944 11.584V12H0.768V11.584L1.648 11.488C1.81867 11.4667 1.92 11.424 1.952 11.36C1.984 11.296 2 11.0773 2 10.704V2.416C2 2.04267 1.984 1.824 1.952 1.76C1.92 1.696 1.81867 1.65333 1.648 1.632L0.768 1.552ZM5.312 1.632H3.392V6.88H5.312C6.496 6.88 7.088 6.15467 7.088 4.704V3.792C7.088 2.352 6.496 1.632 5.312 1.632ZM16.1833 12.112C15.3513 12.112 14.8606 11.728 14.7113 10.96C14.3379 11.3867 13.9273 11.696 13.4793 11.888C13.0313 12.0693 12.5886 12.16 12.1513 12.16C11.4046 12.16 10.8553 11.952 10.5033 11.536C10.1513 11.12 9.97525 10.6187 9.97525 10.032C9.97525 9.40267 10.1886 8.90667 10.6153 8.544C11.0526 8.17067 11.8046 7.984 12.8713 7.984H14.6793V6.688C14.6793 5.83467 14.5299 5.248 14.2313 4.928C13.9433 4.59733 13.5486 4.432 13.0473 4.432C12.7273 4.432 12.4393 4.496 12.1833 4.624C11.9273 4.752 11.7406 4.98667 11.6233 5.328C11.5166 5.65867 11.5059 6.144 11.5913 6.784L10.3273 6.592C10.2739 6.09067 10.3379 5.64267 10.5193 5.248C10.7113 4.84267 11.0206 4.52267 11.4473 4.288C11.8846 4.04267 12.4286 3.92 13.0793 3.92C13.8579 3.92 14.4553 4.05333 14.8713 4.32C15.2873 4.576 15.5753 4.912 15.7353 5.328C15.9059 5.744 15.9913 6.19733 15.9913 6.688V10.288C15.9913 10.832 16.0499 11.1733 16.1673 11.312C16.2953 11.4507 16.4339 11.52 16.5833 11.52C16.6793 11.52 16.7806 11.4987 16.8873 11.456C16.9939 11.4027 17.1113 11.3227 17.2393 11.216L17.5273 11.616C17.3673 11.7547 17.1753 11.872 16.9513 11.968C16.7379 12.064 16.4819 12.112 16.1833 12.112ZM12.5993 11.488C12.8979 11.488 13.2179 11.408 13.5593 11.248C13.9113 11.0773 14.2846 10.7413 14.6793 10.24V8.496H13.0473C12.4499 8.496 12.0126 8.61867 11.7353 8.864C11.4686 9.09867 11.3353 9.46667 11.3353 9.968C11.3353 10.448 11.4366 10.8213 11.6393 11.088C11.8526 11.3547 12.1726 11.488 12.5993 11.488ZM23.5119 10.368C23.3519 10.9867 23.1012 11.44 22.7599 11.728C22.4185 12.016 21.9812 12.16 21.4479 12.16C20.9359 12.16 20.5199 12.048 20.1999 11.824C19.8799 11.5893 19.6452 11.2853 19.4959 10.912C19.3465 10.5387 19.2719 10.1493 19.2719 9.744V5.376C19.2719 5.00267 19.2559 4.784 19.2239 4.72C19.2025 4.656 19.1012 4.61333 18.9199 4.592L18.0399 4.512V4.08H19.2719V1.984L20.5839 1.712V4.08H23.1919V4.592H20.5839V9.872C20.5839 10.544 20.6745 11.008 20.8559 11.264C21.0479 11.52 21.2985 11.648 21.6079 11.648C21.9172 11.648 22.1519 11.5307 22.3119 11.296C22.4825 11.0613 22.6052 10.6773 22.6799 10.144L23.5119 10.368ZM31.0114 12.112C30.1794 12.112 29.6887 11.728 29.5394 10.96C29.166 11.3867 28.7554 11.696 28.3074 11.888C27.8594 12.0693 27.4167 12.16 26.9794 12.16C26.2327 12.16 25.6834 11.952 25.3314 11.536C24.9794 11.12 24.8034 10.6187 24.8034 10.032C24.8034 9.40267 25.0167 8.90667 25.4434 8.544C25.8807 8.17067 26.6327 7.984 27.6994 7.984H29.5074V6.688C29.5074 5.83467 29.358 5.248 29.0594 4.928C28.7714 4.59733 28.3767 4.432 27.8754 4.432C27.5554 4.432 27.2674 4.496 27.0114 4.624C26.7554 4.752 26.5687 4.98667 26.4514 5.328C26.3447 5.65867 26.334 6.144 26.4194 6.784L25.1554 6.592C25.102 6.09067 25.166 5.64267 25.3474 5.248C25.5394 4.84267 25.8487 4.52267 26.2754 4.288C26.7127 4.04267 27.2567 3.92 27.9074 3.92C28.686 3.92 29.2834 4.05333 29.6994 4.32C30.1154 4.576 30.4034 4.912 30.5634 5.328C30.734 5.744 30.8194 6.19733 30.8194 6.688V10.288C30.8194 10.832 30.878 11.1733 30.9954 11.312C31.1234 11.4507 31.262 11.52 31.4114 11.52C31.5074 11.52 31.6087 11.4987 31.7154 11.456C31.822 11.4027 31.9394 11.3227 32.0674 11.216L32.3554 11.616C32.1954 11.7547 32.0034 11.872 31.7794 11.968C31.566 12.064 31.31 12.112 31.0114 12.112ZM27.4274 11.488C27.726 11.488 28.046 11.408 28.3874 11.248C28.7394 11.0773 29.1127 10.7413 29.5074 10.24V8.496H27.8754C27.278 8.496 26.8407 8.61867 26.5634 8.864C26.2967 9.09867 26.1634 9.46667 26.1634 9.968C26.1634 10.448 26.2647 10.8213 26.4674 11.088C26.6807 11.3547 27.0007 11.488 27.4274 11.488ZM40.516 12.928C40.516 13.7813 40.2013 14.432 39.572 14.88C38.9533 15.3387 38.0893 15.568 36.98 15.568C35.764 15.568 34.8733 15.3547 34.308 14.928C33.7427 14.512 33.4493 13.984 33.428 13.344L34.612 13.104C34.5693 13.6907 34.724 14.16 35.076 14.512C35.4387 14.8747 36.0733 15.056 36.98 15.056C37.7907 15.056 38.4413 14.9067 38.932 14.608C39.4333 14.3093 39.684 13.872 39.684 13.296C39.684 12.8693 39.54 12.5493 39.252 12.336C38.964 12.1227 38.4893 12.016 37.828 12.016H35.924C35.2093 12.016 34.708 11.8667 34.42 11.568C34.132 11.2587 33.988 10.9173 33.988 10.544C33.988 10.2347 34.0627 9.94667 34.212 9.68C34.372 9.40267 34.6227 9.13067 34.964 8.864C34.5373 8.66133 34.1907 8.368 33.924 7.984C33.6573 7.58933 33.524 7.11467 33.524 6.56C33.524 5.97333 33.6573 5.488 33.924 5.104C34.2013 4.70933 34.564 4.416 35.012 4.224C35.4707 4.02133 35.9773 3.92 36.532 3.92H36.804C37.3907 3.92 37.9133 4.02667 38.372 4.24L40.692 3.44L40.868 4.64H38.996C39.2413 4.85333 39.4333 5.12 39.572 5.44C39.7213 5.76 39.796 6.13333 39.796 6.56C39.796 7.12533 39.6573 7.60533 39.38 8C39.1133 8.39467 38.756 8.69333 38.308 8.896C37.86 9.088 37.3587 9.184 36.804 9.184H36.532C36.3507 9.184 36.1747 9.17333 36.004 9.152C35.8333 9.13067 35.668 9.09867 35.508 9.056C35.2733 9.216 35.1027 9.38133 34.996 9.552C34.9 9.72267 34.852 9.89867 34.852 10.08C34.852 10.2933 34.9267 10.464 35.076 10.592C35.236 10.72 35.4867 10.784 35.828 10.784H37.908C38.7507 10.784 39.396 10.9653 39.844 11.328C40.292 11.6907 40.516 12.224 40.516 12.928ZM36.804 8.672C37.092 8.672 37.3533 8.608 37.588 8.48C37.8333 8.352 38.0307 8.13867 38.18 7.84C38.3293 7.53067 38.404 7.104 38.404 6.56C38.404 6.00533 38.3293 5.57867 38.18 5.28C38.0307 4.97067 37.8333 4.752 37.588 4.624C37.3533 4.496 37.092 4.432 36.804 4.432H36.532C36.244 4.432 35.9773 4.496 35.732 4.624C35.4867 4.752 35.2893 4.97067 35.14 5.28C34.9907 5.57867 34.916 6.00533 34.916 6.56C34.916 7.104 34.9907 7.53067 35.14 7.84C35.2893 8.13867 35.4867 8.352 35.732 8.48C35.9773 8.608 36.244 8.672 36.532 8.672H36.804ZM49.0606 7.872V8.192C49.0606 9.39733 48.7566 10.3627 48.1486 11.088C47.5513 11.8027 46.698 12.16 45.5886 12.16C44.49 12.16 43.6366 11.8027 43.0286 11.088C42.4313 10.3627 42.1326 9.39733 42.1326 8.192V7.872C42.1326 6.67733 42.4313 5.72267 43.0286 5.008C43.626 4.28267 44.4793 3.92 45.5886 3.92C46.698 3.92 47.5513 4.28267 48.1486 5.008C48.7566 5.72267 49.0606 6.67733 49.0606 7.872ZM47.6206 7.552C47.6206 6.44267 47.4446 5.648 47.0926 5.168C46.7513 4.67733 46.25 4.432 45.5886 4.432C44.938 4.432 44.4366 4.67733 44.0846 5.168C43.7433 5.648 43.5726 6.44267 43.5726 7.552V8.512C43.5726 9.632 43.7433 10.4373 44.0846 10.928C44.4366 11.408 44.938 11.648 45.5886 11.648C46.25 11.648 46.7513 11.408 47.0926 10.928C47.4446 10.4373 47.6206 9.632 47.6206 8.512V7.552ZM59.5509 11.584V12H55.7749V11.584L56.6549 11.488C56.8255 11.4667 56.9269 11.424 56.9589 11.36C56.9909 11.296 57.0069 11.0773 57.0069 10.704V6.72C57.0069 5.93067 56.8789 5.376 56.6229 5.056C56.3669 4.72533 55.9989 4.56 55.5189 4.56C55.1669 4.56 54.7775 4.66667 54.3509 4.88C53.9242 5.09333 53.5242 5.50933 53.1509 6.128V10.704C53.1509 11.0773 53.1669 11.296 53.1989 11.36C53.2309 11.424 53.3322 11.4667 53.5029 11.488L54.3829 11.584V12H50.6069V11.584L51.4869 11.488C51.6575 11.4667 51.7589 11.424 51.7909 11.36C51.8229 11.296 51.8389 11.0773 51.8389 10.704V5.376C51.8389 5.00267 51.8229 4.784 51.7909 4.72C51.7589 4.656 51.6575 4.61333 51.4869 4.592L50.6069 4.512V4.08H53.0709V5.376C53.4549 4.864 53.8869 4.496 54.3669 4.272C54.8575 4.03733 55.3482 3.92 55.8389 3.92C56.6282 3.92 57.2362 4.16533 57.6629 4.656C58.1002 5.136 58.3189 5.81867 58.3189 6.704V10.704C58.3189 11.0773 58.3349 11.296 58.3669 11.36C58.3989 11.424 58.5002 11.4667 58.6709 11.488L59.5509 11.584ZM62.3539 2.288C62.0979 2.288 61.8845 2.208 61.7139 2.048C61.5539 1.87733 61.4739 1.65867 61.4739 1.392C61.4739 1.136 61.5539 0.927999 61.7139 0.768C61.8845 0.608 62.0979 0.528 62.3539 0.528C62.6099 0.528 62.8179 0.608 62.9779 0.768C63.1485 0.927999 63.2339 1.136 63.2339 1.392C63.2339 1.65867 63.1485 1.87733 62.9779 2.048C62.8179 2.208 62.6099 2.288 62.3539 2.288ZM60.4819 4.512V4.08H63.0259V10.704C63.0259 11.0773 63.0419 11.296 63.0739 11.36C63.1059 11.424 63.2072 11.4667 63.3779 11.488L64.2579 11.584V12H60.4819V11.584L61.3619 11.488C61.5325 11.4667 61.6339 11.424 61.6659 11.36C61.6979 11.296 61.7139 11.0773 61.7139 10.704V5.376C61.7139 5.00267 61.6979 4.784 61.6659 4.72C61.6339 4.656 61.5325 4.61333 61.3619 4.592L60.4819 4.512ZM71.8551 12.112C71.0231 12.112 70.5325 11.728 70.3831 10.96C70.0098 11.3867 69.5991 11.696 69.1511 11.888C68.7031 12.0693 68.2605 12.16 67.8231 12.16C67.0765 12.16 66.5271 11.952 66.1751 11.536C65.8231 11.12 65.6471 10.6187 65.6471 10.032C65.6471 9.40267 65.8605 8.90667 66.2871 8.544C66.7245 8.17067 67.4765 7.984 68.5431 7.984H70.3511V6.688C70.3511 5.83467 70.2018 5.248 69.9031 4.928C69.6151 4.59733 69.2205 4.432 68.7191 4.432C68.3991 4.432 68.1111 4.496 67.8551 4.624C67.5991 4.752 67.4125 4.98667 67.2951 5.328C67.1885 5.65867 67.1778 6.144 67.2631 6.784L65.9991 6.592C65.9458 6.09067 66.0098 5.64267 66.1911 5.248C66.3831 4.84267 66.6925 4.52267 67.1191 4.288C67.5565 4.04267 68.1005 3.92 68.7511 3.92C69.5298 3.92 70.1271 4.05333 70.5431 4.32C70.9591 4.576 71.2471 4.912 71.4071 5.328C71.5778 5.744 71.6631 6.19733 71.6631 6.688V10.288C71.6631 10.832 71.7218 11.1733 71.8391 11.312C71.9671 11.4507 72.1058 11.52 72.2551 11.52C72.3511 11.52 72.4525 11.4987 72.5591 11.456C72.6658 11.4027 72.7831 11.3227 72.9111 11.216L73.1991 11.616C73.0391 11.7547 72.8471 11.872 72.6231 11.968C72.4098 12.064 72.1538 12.112 71.8551 12.112ZM68.2711 11.488C68.5698 11.488 68.8898 11.408 69.2311 11.248C69.5831 11.0773 69.9565 10.7413 70.3511 10.24V8.496H68.7191C68.1218 8.496 67.6845 8.61867 67.4071 8.864C67.1405 9.09867 67.0071 9.46667 67.0071 9.968C67.0071 10.448 67.1085 10.8213 67.3111 11.088C67.5245 11.3547 67.8445 11.488 68.2711 11.488ZM77.7368 1.552V1.12H81.5928V1.552L80.7128 1.632C80.5421 1.65333 80.4408 1.696 80.4088 1.76C80.3768 1.824 80.3608 2.04267 80.3608 2.416V10.704C80.3608 11.0773 80.3768 11.296 80.4088 11.36C80.4408 11.424 80.5421 11.4667 80.7128 11.488L81.5928 11.584V12H77.7368V11.584L78.6168 11.488C78.7874 11.4667 78.8888 11.424 78.9208 11.36C78.9528 11.296 78.9688 11.0773 78.9688 10.704V2.416C78.9688 2.04267 78.9528 1.824 78.9208 1.76C78.8888 1.696 78.7874 1.65333 78.6168 1.632L77.7368 1.552ZM91.8634 11.584V12H88.0874V11.584L88.9674 11.488C89.138 11.4667 89.2394 11.424 89.2714 11.36C89.3034 11.296 89.3194 11.0773 89.3194 10.704V6.72C89.3194 5.93067 89.1914 5.376 88.9354 5.056C88.6794 4.72533 88.3114 4.56 87.8314 4.56C87.4794 4.56 87.09 4.66667 86.6634 4.88C86.2367 5.09333 85.8367 5.50933 85.4634 6.128V10.704C85.4634 11.0773 85.4794 11.296 85.5114 11.36C85.5434 11.424 85.6447 11.4667 85.8154 11.488L86.6954 11.584V12H82.9194V11.584L83.7994 11.488C83.97 11.4667 84.0714 11.424 84.1034 11.36C84.1354 11.296 84.1514 11.0773 84.1514 10.704V5.376C84.1514 5.00267 84.1354 4.784 84.1034 4.72C84.0714 4.656 83.97 4.61333 83.7994 4.592L82.9194 4.512V4.08H85.3834V5.376C85.7674 4.864 86.1994 4.496 86.6794 4.272C87.17 4.03733 87.6607 3.92 88.1514 3.92C88.9407 3.92 89.5487 4.16533 89.9754 4.656C90.4127 5.136 90.6314 5.81867 90.6314 6.704V10.704C90.6314 11.0773 90.6474 11.296 90.6794 11.36C90.7114 11.424 90.8127 11.4667 90.9834 11.488L91.8634 11.584ZM101.066 11.6V12H98.6024V10.736C98.2717 11.2267 97.9037 11.5893 97.4984 11.824C97.1037 12.048 96.661 12.16 96.1704 12.16C95.253 12.16 94.5384 11.8187 94.0264 11.136C93.525 10.4427 93.2744 9.46667 93.2744 8.208V7.888C93.2744 6.68267 93.5677 5.72267 94.1544 5.008C94.7517 4.28267 95.5677 3.92 96.6024 3.92C97.3597 3.92 97.9997 4.15467 98.5224 4.624V1.456C98.5224 1.08267 98.5064 0.864 98.4744 0.799999C98.4424 0.735999 98.341 0.693333 98.1704 0.672L97.2904 0.591999V0.16H99.8344V10.704C99.8344 11.0773 99.8504 11.296 99.8824 11.36C99.9144 11.424 100.016 11.4667 100.186 11.488L101.066 11.6ZM94.7144 8.688C94.7144 9.69067 94.8584 10.4267 95.1464 10.896C95.445 11.3653 95.8557 11.6 96.3784 11.6C96.7197 11.6 97.0717 11.4933 97.4344 11.28C97.797 11.0667 98.1597 10.6347 98.5224 9.984V5.408C98.053 4.77867 97.4397 4.464 96.6824 4.464C95.9997 4.464 95.4984 4.72533 95.1784 5.248C94.869 5.77067 94.7144 6.49067 94.7144 7.408V8.688ZM109.436 7.872V8.192C109.436 9.39733 109.132 10.3627 108.524 11.088C107.926 11.8027 107.073 12.16 105.964 12.16C104.865 12.16 104.012 11.8027 103.404 11.088C102.806 10.3627 102.508 9.39733 102.508 8.192V7.872C102.508 6.67733 102.806 5.72267 103.404 5.008C104.001 4.28267 104.854 3.92 105.964 3.92C107.073 3.92 107.926 4.28267 108.524 5.008C109.132 5.72267 109.436 6.67733 109.436 7.872ZM107.996 7.552C107.996 6.44267 107.82 5.648 107.468 5.168C107.126 4.67733 106.625 4.432 105.964 4.432C105.313 4.432 104.812 4.67733 104.46 5.168C104.118 5.648 103.948 6.44267 103.948 7.552V8.512C103.948 9.632 104.118 10.4373 104.46 10.928C104.812 11.408 105.313 11.648 105.964 11.648C106.625 11.648 107.126 11.408 107.468 10.928C107.82 10.4373 107.996 9.632 107.996 8.512V7.552ZM119.766 11.584V12H115.99V11.584L116.87 11.488C117.041 11.4667 117.142 11.424 117.174 11.36C117.206 11.296 117.222 11.0773 117.222 10.704V6.72C117.222 5.93067 117.099 5.376 116.854 5.056C116.619 4.72533 116.273 4.56 115.814 4.56C115.483 4.56 115.11 4.66667 114.694 4.88C114.289 5.09333 113.899 5.504 113.526 6.112V10.704C113.526 11.0773 113.542 11.296 113.574 11.36C113.606 11.424 113.707 11.4667 113.878 11.488L114.758 11.584V12H110.982V11.584L111.862 11.488C112.033 11.4667 112.134 11.424 112.166 11.36C112.198 11.296 112.214 11.0773 112.214 10.704V5.376C112.214 5.00267 112.198 4.784 112.166 4.72C112.134 4.656 112.033 4.61333 111.862 4.592L110.982 4.512V4.08H113.446V5.376C113.819 4.87467 114.241 4.50667 114.71 4.272C115.19 4.03733 115.665 3.92 116.134 3.92C117.286 3.92 118.027 4.448 118.358 5.504C118.753 4.94933 119.19 4.54933 119.67 4.304C120.161 4.048 120.651 3.92 121.142 3.92C121.899 3.92 122.486 4.16533 122.902 4.656C123.329 5.136 123.542 5.81867 123.542 6.704V10.704C123.542 11.0773 123.558 11.296 123.59 11.36C123.622 11.424 123.723 11.4667 123.894 11.488L124.774 11.584V12H120.998V11.584L121.878 11.488C122.049 11.4667 122.15 11.424 122.182 11.36C122.214 11.296 122.23 11.0773 122.23 10.704V6.72C122.23 5.93067 122.107 5.376 121.862 5.056C121.627 4.72533 121.281 4.56 120.822 4.56C120.491 4.56 120.113 4.672 119.686 4.896C119.27 5.10933 118.875 5.53067 118.502 6.16C118.513 6.24533 118.518 6.336 118.518 6.432C118.529 6.51733 118.534 6.608 118.534 6.704V10.704C118.534 11.0773 118.55 11.296 118.582 11.36C118.614 11.424 118.715 11.4667 118.886 11.488L119.766 11.584ZM132.293 12.112C131.461 12.112 130.97 11.728 130.821 10.96C130.447 11.3867 130.037 11.696 129.589 11.888C129.141 12.0693 128.698 12.16 128.261 12.16C127.514 12.16 126.965 11.952 126.613 11.536C126.261 11.12 126.085 10.6187 126.085 10.032C126.085 9.40267 126.298 8.90667 126.725 8.544C127.162 8.17067 127.914 7.984 128.981 7.984H130.789V6.688C130.789 5.83467 130.639 5.248 130.341 4.928C130.053 4.59733 129.658 4.432 129.157 4.432C128.837 4.432 128.549 4.496 128.293 4.624C128.037 4.752 127.85 4.98667 127.733 5.328C127.626 5.65867 127.615 6.144 127.701 6.784L126.437 6.592C126.383 6.09067 126.447 5.64267 126.629 5.248C126.821 4.84267 127.13 4.52267 127.557 4.288C127.994 4.04267 128.538 3.92 129.189 3.92C129.967 3.92 130.565 4.05333 130.981 4.32C131.397 4.576 131.685 4.912 131.845 5.328C132.015 5.744 132.101 6.19733 132.101 6.688V10.288C132.101 10.832 132.159 11.1733 132.277 11.312C132.405 11.4507 132.543 11.52 132.693 11.52C132.789 11.52 132.89 11.4987 132.997 11.456C133.103 11.4027 133.221 11.3227 133.349 11.216L133.637 11.616C133.477 11.7547 133.285 11.872 133.061 11.968C132.847 12.064 132.591 12.112 132.293 12.112ZM128.709 11.488C129.007 11.488 129.327 11.408 129.669 11.248C130.021 11.0773 130.394 10.7413 130.789 10.24V8.496H129.157C128.559 8.496 128.122 8.61867 127.845 8.864C127.578 9.09867 127.445 9.46667 127.445 9.968C127.445 10.448 127.546 10.8213 127.749 11.088C127.962 11.3547 128.282 11.488 128.709 11.488ZM134.117 0.591999V0.16H136.661V5.232C136.971 4.77333 137.323 4.44267 137.717 4.24C138.112 4.02667 138.539 3.92 138.997 3.92C139.915 3.92 140.624 4.26667 141.125 4.96C141.637 5.65333 141.893 6.624 141.893 7.872V8.192C141.893 9.408 141.6 10.3733 141.013 11.088C140.437 11.8027 139.627 12.16 138.581 12.16C137.749 12.16 137.067 11.888 136.533 11.344C136.384 11.4293 136.245 11.536 136.117 11.664C135.989 11.792 135.861 11.9307 135.733 12.08H135.349V1.456C135.349 1.08267 135.333 0.864 135.301 0.799999C135.269 0.735999 135.168 0.693333 134.997 0.672L134.117 0.591999ZM138.789 4.496C138.459 4.496 138.112 4.60267 137.749 4.816C137.397 5.02933 137.035 5.46133 136.661 6.112V10.688C137.12 11.3173 137.728 11.632 138.485 11.632C139.179 11.632 139.68 11.3707 139.989 10.848C140.299 10.3147 140.453 9.58933 140.453 8.672V7.392C140.453 6.38933 140.309 5.65867 140.021 5.2C139.733 4.73067 139.323 4.496 138.789 4.496ZM143.401 0.591999V0.16H145.945V10.704C145.945 11.0773 145.961 11.296 145.993 11.36C146.025 11.424 146.126 11.4667 146.297 11.488L147.177 11.584V12H143.401V11.584L144.281 11.488C144.452 11.4667 144.553 11.424 144.585 11.36C144.617 11.296 144.633 11.0773 144.633 10.704V1.456C144.633 1.08267 144.617 0.864 144.585 0.799999C144.553 0.735999 144.452 0.693333 144.281 0.672L143.401 0.591999ZM155.017 10.176C154.825 10.9013 154.462 11.4133 153.929 11.712C153.406 12.0107 152.825 12.16 152.185 12.16C151.001 12.16 150.115 11.8027 149.529 11.088C148.942 10.3627 148.649 9.39733 148.649 8.192V7.872C148.649 6.67733 148.931 5.72267 149.497 5.008C150.062 4.28267 150.883 3.92 151.961 3.92C152.537 3.92 153.059 4.03733 153.529 4.272C154.009 4.50667 154.387 4.85333 154.665 5.312C154.953 5.77067 155.097 6.34133 155.097 7.024C155.097 7.344 155.065 7.68 155.001 8.032H150.089V8.512C150.089 9.632 150.259 10.4373 150.601 10.928C150.953 11.408 151.518 11.648 152.297 11.648C152.787 11.648 153.193 11.52 153.513 11.264C153.843 11.008 154.062 10.5653 154.169 9.936L155.017 10.176ZM151.961 4.432C151.331 4.432 150.862 4.672 150.553 5.152C150.243 5.632 150.089 6.42133 150.089 7.52H153.689V7.472C153.71 7.33333 153.726 7.2 153.737 7.072C153.747 6.93333 153.753 6.81067 153.753 6.704C153.753 5.904 153.587 5.328 153.257 4.976C152.926 4.61333 152.494 4.432 151.961 4.432Z" fill="white"/>
</svg>
